<?xml version="1.0" encoding="UTF-8" standalone="no"?>
<svg width="56px" height="38px" viewBox="0 0 56 38" version="1.1" xmlns="http://www.w3.org/2000/svg" xmlns:xlink="http://www.w3.org/1999/xlink">
    <!-- Generator: Sketch 40.3 (33839) - http://www.bohemiancoding.com/sketch -->
    <title>amex</title>
    <desc>Created with Sketch.</desc>
    <defs></defs>
    <g id="Page-1" stroke="none" stroke-width="1" fill="none" fill-rule="evenodd">
        <g id="amex">
            <g id="Rounded_Rectangle_3_xA0_Image_1_" fill="#60BAEB">
                <path d="M53,38 L3,38 C1.4,38 0,36.7 0,35 L0,3 C0,1.3 1.3,0 3,0 L53,0 C54.6,0 56,1.4 56,3 L56,35 C56,36.7 54.7,38 53,38 L53,38 Z" id="Shape"></path>
            </g>
            <g id="Amex_Logo_1_" transform="translate(7.000000, 13.000000)" fill="#FFFFFF">
                <g id="Amex_Logo">
                    <path d="M43,1 L36.6,1 C36.5,1 36.4,1.1 36.3,1.1 C35.8,1.6 35.4,2.1 34.9,2.6 C34.5,2.1 34,1.6 33.6,1.1 C33.5,1 33.4,0.9 33.3,0.9 L18.5,0.9 C18.3,0.9 18.3,1 18.2,1.1 L17.1,3.7 C16.7,2.8 16.3,2 16,1.1 C15.9,0.9 15.8,0.8 15.6,0.8 L5,0.8 C4.8,0.8 4.7,0.9 4.6,1.1 L0,12 L5.5,12 C5.6,12 5.7,11.9 5.7,11.8 C5.9,11.3 6.1,10.8 6.3,10.4 C6.3,10.3 6.4,10.2 6.5,10.2 L7.7,10.2 C7.9,10.2 7.9,10.2 8,10.4 C8.2,10.8 8.4,11.2 8.5,11.7 C8.6,11.9 8.7,12 8.9,12 L32.8,12 C33.1,12 33.3,11.9 33.5,11.7 C33.9,11.2 34.3,10.8 34.7,10.3 C35.2,10.8 35.6,11.4 36,11.9 C36.1,12 36.2,12.1 36.3,12.1 L42.6,12.1 C41,10.3 39.4,8.4 37.8,6.6 C39.6,4.7 43,1 43,1 L43,1 Z M22.5,10.5 L20.6,10.5 L20.6,4.5 C20.6,4.5 18.8,8.5 18,10.3 C17.9,10.5 17.9,10.5 17.7,10.5 L16.5,10.5 C16.3,10.5 16.3,10.4 16.2,10.3 L13.6,4.4 L13.6,10.5 L10.1,10.5 C9.9,10.5 9.8,10.4 9.8,10.3 C9.6,9.8 9.4,9.4 9.3,8.9 C9.3,8.8 9.2,8.7 9.1,8.7 L5.6,8.7 C5.5,8.7 5.4,8.7 5.4,8.9 C5.2,9.4 5,9.9 4.8,10.3 C4.8,10.4 4.7,10.5 4.6,10.5 L2.7,10.5 L5.9,2.8 C6,2.6 6.1,2.6 6.2,2.6 L8.5,2.6 C8.7,2.6 8.7,2.7 8.8,2.8 L11.8,9.9 L11.8,2.6 L14.6,2.6 C14.8,2.6 14.8,2.7 14.9,2.8 L17.2,7.9 L19.4,2.8 C19.4,2.7 19.5,2.6 19.6,2.6 L22.6,2.6 L22.6,10.5 L22.5,10.5 Z M39.4,10.5 L37.4,10.5 C37.1,10.5 37,10.4 36.8,10.2 L34.8,7.9 C34.8,7.9 33,9.8 32.5,10.4 C32.4,10.5 32.3,10.5 32.2,10.5 L24.1,10.5 L24.1,2.6 L32.3,2.6 C32.5,2.6 32.6,2.7 32.7,2.8 C33.3,3.6 34,4.4 34.7,5.2 L37,2.7 C37.1,2.6 37.1,2.6 37.2,2.6 L39.5,2.6 C38.3,3.9 37.1,5.2 35.9,6.6 C37.1,7.8 38.2,9.1 39.4,10.5 L39.4,10.5 Z M5.9,7 L8.4,7 L7.1,3.9 L5.9,7 L5.9,7 Z M30.3,2.9 L30.3,4.2 L25.9,4.2 L25.9,5.6 L30.3,5.6 L30.3,7.2 L25.9,7.2 L25.9,8.8 L30.3,8.8 L30.3,10 C31.4,8.8 32.4,7.7 33.5,6.5 C32.4,5.3 31.4,4.1 30.3,2.9 L30.3,2.9 L30.3,2.9 Z" id="Shape"></path>
                </g>
            </g>
        </g>
    </g>
</svg>