<?xml version="1.0" encoding="UTF-8" standalone="no"?>
<svg width="126px" height="79px" viewBox="0 0 126 79" version="1.1" xmlns="http://www.w3.org/2000/svg" xmlns:xlink="http://www.w3.org/1999/xlink">
    <!-- Generator: Sketch 40.3 (33839) - http://www.bohemiancoding.com/sketch -->
    <title>master card</title>
    <desc>Created with Sketch.</desc>
    <defs></defs>
    <g id="Page-1" stroke="none" stroke-width="1" fill="none" fill-rule="evenodd">
        <g id="master-card">
            <path d="M125.735,74.343 C125.735,76.653 123.862,78.523 121.554,78.523 L4.486,78.523 C2.178,78.523 0.305,76.653 0.305,74.343 L0.305,4.312 C0.305,2.002 2.178,0.13 4.486,0.13 L121.554,0.13 C123.862,0.13 125.735,2.002 125.735,4.312 L125.735,74.343" id="Fill-186" fill="#F9F9F9"></path>
            <polyline id="Fill-187" fill="#FBB231" points="78.073 61.83 79.233 61.8 80.38 61.717 81.504 61.573 82.619 61.375 83.704 61.125 84.775 60.821 85.822 60.464 86.848 60.062 87.849 59.607 88.821 59.113 89.762 58.566 90.681 57.982 91.562 57.353 92.411 56.684 93.231 55.978 94.013 55.227 94.764 54.445 95.47 53.624 96.139 52.775 96.769 51.894 97.354 50.976 97.898 50.033 98.392 49.062 98.848 48.061 99.25 47.035 99.606 45.988 99.912 44.919 100.161 43.833 100.358 42.717 100.502 41.593 100.587 40.447 100.616 39.286 100.587 38.132 100.502 36.993 100.358 35.87 100.161 34.769 99.912 33.684 99.606 32.621 99.25 31.574 98.848 30.556 98.392 29.563 97.898 28.59 97.354 27.657 96.769 26.739 96.139 25.858 95.47 25.015 94.764 24.197 94.013 23.414 93.231 22.67 92.411 21.964 91.562 21.296 90.681 20.666 89.762 20.081 88.821 19.543 87.849 19.05 86.848 18.593 85.822 18.191 84.775 17.835 83.704 17.531 82.619 17.28 81.504 17.084 80.38 16.939 79.233 16.855 78.073 16.824 76.917 16.855 75.771 16.939 74.649 17.084 73.54 17.28 72.455 17.531 71.386 17.835 70.345 18.191 69.319 18.593 68.325 19.05 67.361 19.543 66.42 20.081 65.51 20.666 64.63 21.296 63.779 21.964 62.967 22.67 62.184 23.414 61.441 24.197 60.734 25.015 60.067 25.858 59.445 26.739 58.86 27.657 58.321 28.59 57.82 29.563 57.372 30.556 56.969 31.574 56.621 32.621 56.316 33.684 56.066 34.769 55.869 35.87 55.726 36.993 55.641 38.132 55.61 39.286 55.641 40.447 55.726 41.593 55.869 42.717 56.066 43.833 56.316 44.919 56.621 45.988 56.969 47.035 57.372 48.061 57.82 49.062 58.321 50.033 58.86 50.976 59.445 51.894 60.067 52.775 60.734 53.624 61.441 54.445 62.184 55.227 62.967 55.978 63.779 56.684 64.63 57.353 65.51 57.982 66.42 58.566 67.361 59.113 68.325 59.607 69.319 60.062 70.345 60.464 71.386 60.821 72.455 61.125 73.54 61.375 74.649 61.573 75.771 61.717 76.917 61.8 78.073 61.83"></polyline>
            <polyline id="Fill-188" fill="#EC1C2E" points="47.968 61.83 49.12 61.8 50.267 61.717 51.391 61.573 52.499 61.375 53.584 61.125 54.654 60.821 55.695 60.464 56.719 60.062 57.713 59.607 58.678 59.113 59.619 58.566 60.529 57.982 61.411 57.353 62.261 56.684 63.072 55.978 63.854 55.227 64.599 54.445 65.305 53.624 65.972 52.775 66.594 51.894 67.18 50.976 67.719 50.033 68.219 49.062 68.667 48.061 69.07 47.035 69.418 45.988 69.722 44.919 69.973 43.833 70.17 42.717 70.314 41.593 70.397 40.447 70.428 39.286 70.397 38.132 70.314 36.993 70.17 35.87 69.973 34.769 69.722 33.684 69.418 32.621 69.07 31.574 68.667 30.556 68.219 29.563 67.719 28.59 67.18 27.657 66.594 26.739 65.972 25.858 65.305 25.015 64.599 24.197 63.854 23.414 63.072 22.67 62.261 21.964 61.411 21.296 60.529 20.666 59.619 20.081 58.678 19.543 57.713 19.05 56.719 18.593 55.695 18.191 54.654 17.835 53.584 17.531 52.499 17.28 51.391 17.084 50.267 16.939 49.12 16.855 47.968 16.824 46.805 16.855 45.66 16.939 44.536 17.084 43.419 17.28 42.334 17.531 41.264 17.835 40.216 18.191 39.192 18.593 38.19 19.05 37.218 19.543 36.277 20.081 35.358 20.666 34.478 21.296 33.628 21.964 32.808 22.67 32.027 23.414 31.275 24.197 30.569 25.015 29.901 25.858 29.271 26.739 28.687 27.657 28.14 28.59 27.647 29.563 27.191 30.556 26.789 31.574 26.433 32.621 26.129 33.684 25.878 34.769 25.681 35.87 25.536 36.993 25.453 38.132 25.422 39.286 25.453 40.447 25.536 41.593 25.681 42.717 25.878 43.833 26.129 44.919 26.433 45.988 26.789 47.035 27.191 48.061 27.647 49.062 28.14 50.033 28.687 50.976 29.271 51.894 29.901 52.775 30.569 53.624 31.275 54.445 32.027 55.227 32.808 55.978 33.628 56.684 34.478 57.353 35.358 57.982 36.277 58.566 37.218 59.113 38.19 59.607 39.192 60.062 40.216 60.464 41.264 60.821 42.334 61.125 43.419 61.375 44.536 61.573 45.66 61.717 46.805 61.8 47.968 61.83"></polyline>
            <polyline id="Fill-189" fill="#FBB231" points="60.386 25.456 72.341 25.456 72.341 24.233 61.418 24.233 60.386 25.456"></polyline>
            <polyline id="Fill-190" fill="#FBB231" points="58.594 28.173 72.341 28.173 72.341 26.95 59.315 26.95 58.594 28.173"></polyline>
            <polyline id="Fill-191" fill="#FBB231" points="57.259 30.883 72.341 30.883 72.341 29.66 57.79 29.66 57.259 30.883"></polyline>
            <polyline id="Fill-192" fill="#FBB231" points="56.34 33.6 72.341 33.6 72.341 32.379 56.719 32.379 56.34 33.6"></polyline>
            <polyline id="Fill-193" fill="#FBB231" points="56.872 46.733 72.379 46.733 72.379 45.51 56.491 45.51 56.872 46.733"></polyline>
            <polyline id="Fill-194" fill="#FBB231" points="58.017 49.45 72.379 49.45 72.379 48.228 57.448 48.228 58.017 49.45"></polyline>
            <polyline id="Fill-195" fill="#FBB231" points="59.625 52.16 72.379 52.16 72.379 50.938 58.86 50.938 59.625 52.16"></polyline>
            <polyline id="Fill-196" fill="#FBB231" points="61.843 54.877 72.379 54.877 72.379 53.647 60.773 53.647 61.843 54.877"></polyline>
            <polyline id="Fill-197" fill="#FBB231" points="55.801 36.31 72.341 36.31 72.341 35.088 56.036 35.088 55.801 36.31"></polyline>
            <polyline id="Fill-198" fill="#FBB231" points="65.881 44.023 72.189 44.023 72.189 42.8 66.109 42.8 65.881 44.023"></polyline>
            <polyline id="Fill-199" fill="#FBB231" points="66.383 41.312 72.189 41.312 72.189 40.083 66.61 40.083 66.383 41.312"></polyline>
            <polyline id="Fill-200" fill="#FBB231" points="55.383 40.083 57.024 40.083 57.024 41.312 55.46 41.312 55.383 40.083"></polyline>
            <polyline id="Fill-201" fill="#FFFFFF" points="52.323 38.602 52.218 38.594 52.112 38.58 52.013 38.565 51.915 38.55 51.823 38.535 51.725 38.519 51.627 38.505 51.519 38.488 51.414 38.474 51.292 38.466 51.155 38.458 51.012 38.45 50.852 38.45 50.677 38.458 50.479 38.474 50.26 38.488 50.108 38.512 49.964 38.535 49.834 38.58 49.721 38.625 49.614 38.678 49.517 38.739 49.439 38.816 49.37 38.884 49.326 38.967 49.288 39.051 49.272 39.141 49.272 39.233 49.295 39.332 49.326 39.43 49.386 39.529 49.462 39.628 49.614 39.771 49.797 39.885 50.009 39.984 50.237 40.067 50.479 40.144 50.729 40.227 50.98 40.319 51.223 40.417 51.451 40.546 51.664 40.705 51.853 40.896 52.013 41.131 52.134 41.419 52.211 41.76 52.24 42.171 52.211 42.649 52.158 43.006 52.066 43.317 51.944 43.605 51.793 43.855 51.619 44.076 51.42 44.265 51.208 44.432 50.974 44.577 50.729 44.691 50.479 44.789 50.221 44.865 49.956 44.926 49.697 44.972 49.448 44.994 49.198 45.01 48.962 45.016 48.634 45.016 48.331 45.01 48.065 45.01 47.815 45.003 47.587 44.994 47.383 44.979 47.201 44.964 47.026 44.941 46.866 44.926 46.723 44.896 46.578 44.872 46.449 44.835 46.319 44.804 46.199 44.758 46.077 44.714 45.948 44.668 46.289 42.99 46.358 43.006 46.44 43.029 46.547 43.058 46.677 43.09 46.813 43.119 46.965 43.15 47.132 43.187 47.313 43.218 47.504 43.248 47.702 43.279 47.906 43.301 48.119 43.324 48.338 43.331 48.561 43.339 48.778 43.339 48.999 43.331 49.22 43.286 49.395 43.225 49.53 43.142 49.637 43.036 49.713 42.929 49.774 42.807 49.813 42.687 49.842 42.573 49.858 42.352 49.79 42.162 49.659 42.01 49.47 41.882 49.242 41.768 48.977 41.654 48.681 41.547 48.385 41.426 48.081 41.29 47.793 41.131 47.527 40.933 47.284 40.698 47.094 40.409 46.958 40.067 46.889 39.658 46.896 39.173 46.935 38.876 46.989 38.594 47.064 38.337 47.154 38.094 47.276 37.867 47.413 37.669 47.573 37.479 47.763 37.313 47.984 37.169 48.226 37.047 48.498 36.933 48.802 36.85 49.145 36.78 49.517 36.728 49.925 36.697 50.375 36.689 50.654 36.689 50.912 36.697 51.148 36.706 51.36 36.713 51.55 36.728 51.725 36.743 51.876 36.758 52.013 36.774 52.142 36.788 52.249 36.811 52.347 36.827 52.439 36.842 52.515 36.856 52.583 36.865 52.65 36.88 52.711 36.888 52.323 38.602"></polyline>
            <polyline id="Stroke-202" stroke="#FFFFFF" stroke-width="0.216" points="52.323 38.602 52.323 38.602 52.218 38.594 52.112 38.58 52.013 38.565 51.915 38.55 51.823 38.535 51.725 38.519 51.627 38.505 51.519 38.488 51.414 38.474 51.292 38.466 51.155 38.458 51.012 38.45 50.852 38.45 50.677 38.458 50.479 38.474 50.26 38.488 50.108 38.512 49.964 38.535 49.834 38.58 49.721 38.625 49.614 38.678 49.517 38.739 49.439 38.816 49.37 38.884 49.326 38.967 49.288 39.051 49.272 39.141 49.272 39.233 49.295 39.332 49.326 39.43 49.386 39.529 49.462 39.628 49.614 39.771 49.797 39.885 50.009 39.984 50.237 40.067 50.479 40.144 50.729 40.227 50.98 40.319 51.223 40.417 51.451 40.546 51.664 40.705 51.853 40.896 52.013 41.131 52.134 41.419 52.211 41.76 52.24 42.171 52.211 42.649 52.158 43.006 52.066 43.317 51.944 43.605 51.793 43.855 51.619 44.076 51.42 44.265 51.208 44.432 50.974 44.577 50.729 44.691 50.479 44.789 50.221 44.865 49.956 44.926 49.697 44.972 49.448 44.994 49.198 45.01 48.962 45.016 48.634 45.016 48.331 45.01 48.065 45.01 47.815 45.003 47.587 44.994 47.383 44.979 47.201 44.964 47.026 44.941 46.866 44.926 46.723 44.896 46.578 44.872 46.449 44.835 46.319 44.804 46.199 44.758 46.077 44.714 45.948 44.668 46.289 42.99 46.358 43.006 46.44 43.029 46.547 43.058 46.677 43.09 46.813 43.119 46.965 43.15 47.132 43.187 47.313 43.218 47.504 43.248 47.702 43.279 47.906 43.301 48.119 43.324 48.338 43.331 48.561 43.339 48.778 43.339 48.999 43.331 49.22 43.286 49.395 43.225 49.53 43.142 49.637 43.036 49.713 42.929 49.774 42.807 49.813 42.687 49.842 42.573 49.858 42.352 49.79 42.162 49.659 42.01 49.47 41.882 49.242 41.768 48.977 41.654 48.681 41.547 48.385 41.426 48.081 41.29 47.793 41.131 47.527 40.933 47.284 40.698 47.094 40.409 46.958 40.067 46.889 39.658 46.896 39.173 46.935 38.876 46.989 38.594 47.064 38.337 47.154 38.094 47.276 37.867 47.413 37.669 47.573 37.479 47.763 37.313 47.984 37.169 48.226 37.047 48.498 36.933 48.802 36.85 49.145 36.78 49.517 36.728 49.925 36.697 50.375 36.689 50.654 36.689 50.912 36.697 51.148 36.706 51.36 36.713 51.55 36.728 51.725 36.743 51.876 36.758 52.013 36.774 52.142 36.788 52.249 36.811 52.347 36.827 52.439 36.842 52.515 36.856 52.583 36.865 52.65 36.88 52.711 36.888 52.323 38.602"></polyline>
            <polyline id="Fill-203" fill="#FFFFFF" points="54.123 35.013 56.227 35.013 55.915 36.85 57.183 36.85 56.909 38.565 55.572 38.527 54.845 42.762 54.837 42.914 54.874 43.044 54.951 43.142 55.05 43.225 55.187 43.279 55.338 43.324 55.504 43.354 55.687 43.37 55.854 43.363 56.005 43.347 56.143 43.324 56.264 43.294 56.363 43.263 56.431 43.241 56.477 43.225 56.491 43.218 56.227 44.63 56.173 44.668 56.12 44.698 56.066 44.728 56.014 44.758 55.96 44.781 55.899 44.804 55.832 44.827 55.763 44.85 55.687 44.872 55.61 44.888 55.52 44.903 55.43 44.919 55.331 44.934 55.216 44.949 55.094 44.964 54.965 44.979 54.388 44.979 54.084 44.956 53.819 44.926 53.577 44.881 53.372 44.827 53.196 44.758 53.053 44.684 52.924 44.592 52.825 44.493 52.749 44.387 52.695 44.258 52.658 44.128 52.635 43.985 52.628 43.825 52.628 43.658 52.674 43.294 54.123 35.013"></polyline>
            <path d="M54.123,35.013 L56.227,35.013 L55.915,36.85 L57.183,36.85 L56.909,38.565 L55.572,38.527 L54.845,42.762 L54.837,42.914 L54.874,43.044 L54.951,43.142 L55.05,43.225 L55.187,43.279 L55.338,43.324 L55.504,43.354 L55.687,43.37 L55.854,43.363 L56.005,43.347 L56.143,43.324 L56.264,43.294 L56.363,43.263 L56.431,43.241 L56.477,43.225 L56.491,43.218 L56.227,44.63 L56.173,44.668 L56.12,44.698 L56.066,44.728 L56.014,44.758 L55.96,44.781 L55.899,44.804 L55.832,44.827 L55.763,44.85 L55.687,44.872 L55.61,44.888 L55.52,44.903 L55.43,44.919 L55.331,44.934 L55.216,44.949 L55.094,44.964 L54.965,44.979 L54.388,44.979 L54.084,44.956 L53.819,44.926 L53.577,44.881 L53.372,44.827 L53.196,44.758 L53.053,44.684 L52.924,44.592 L52.825,44.493 L52.749,44.387 L52.695,44.258 L52.658,44.128 L52.635,43.985 L52.628,43.825 L52.628,43.658 L52.674,43.294 L54.123,35.013 M58.86,41.426 L58.86,41.426 L58.837,41.555 L58.83,41.691 L58.845,41.836 L58.875,41.98 L58.928,42.125 L58.99,42.263 L59.073,42.406 L59.163,42.534 L59.27,42.664 L59.383,42.779 L59.505,42.892 L59.641,42.982 L59.779,43.067 L59.93,43.134 L60.082,43.187 L60.234,43.218 L60.431,43.248 L60.621,43.271 L60.819,43.294 L61.016,43.309 L61.213,43.317 L61.418,43.317 L61.615,43.309 L61.82,43.294 L62.025,43.263 L62.23,43.225 L62.443,43.18 L62.647,43.112 L62.861,43.029 L63.08,42.936 L63.293,42.816 L63.513,42.687 L63.209,44.554 L63.087,44.614 L62.967,44.676 L62.845,44.72 L62.732,44.767 L62.618,44.804 L62.495,44.843 L62.374,44.872 L62.245,44.896 L62.108,44.919 L61.957,44.934 L61.798,44.949 L61.623,44.964 L61.425,44.972 L61.222,44.972 L60.985,44.979 L60.734,44.979 L60.363,44.972 L59.984,44.934 L59.604,44.881 L59.224,44.789 L58.853,44.676 L58.497,44.53 L58.154,44.342 L57.835,44.121 L57.539,43.863 L57.282,43.552 L57.062,43.202 L56.878,42.8 L56.75,42.352 L56.667,41.843 L56.644,41.282 L56.682,40.66 L56.712,40.417 L56.757,40.135 L56.818,39.841 L56.901,39.52 L57.016,39.196 L57.152,38.868 L57.326,38.535 L57.539,38.216 L57.781,37.912 L58.077,37.624 L58.412,37.366 L58.792,37.138 L59.231,36.948 L59.726,36.811 L60.271,36.721 L60.887,36.689 L61.183,36.697 L61.494,36.728 L61.806,36.78 L62.117,36.856 L62.42,36.971 L62.717,37.108 L62.99,37.29 L63.24,37.502 L63.467,37.76 L63.658,38.065 L63.809,38.413 L63.916,38.816 L63.977,39.27 L63.984,39.786 L63.931,40.363 L63.816,41.002 L63.779,41.465 L58.246,41.465 L58.594,39.968 L61.919,39.968 L61.935,39.78 L61.926,39.597 L61.91,39.43 L61.881,39.279 L61.828,39.134 L61.775,39.004 L61.699,38.891 L61.623,38.785 L61.533,38.694 L61.433,38.618 L61.319,38.55 L61.205,38.488 L61.084,38.444 L60.962,38.413 L60.833,38.39 L60.697,38.375 L60.552,38.383 L60.416,38.405 L60.287,38.437 L60.158,38.481 L60.028,38.542 L59.916,38.611 L59.8,38.694 L59.703,38.785 L59.604,38.891 L59.512,39.004 L59.43,39.127 L59.361,39.257 L59.292,39.393 L59.239,39.544 L59.194,39.696 L59.163,39.855 L58.86,41.426" id="Stroke-204" stroke="#FFFFFF" stroke-width="0.216"></path>
            <polyline id="Fill-205" fill="#FFFFFF" points="76.963 37.305 76.865 37.252 76.767 37.206 76.659 37.153 76.546 37.099 76.431 37.054 76.304 37.009 76.174 36.963 76.039 36.918 75.894 36.88 75.748 36.85 75.59 36.819 75.431 36.796 75.256 36.78 75.082 36.766 74.52 36.766 74.322 36.78 74.117 36.804 73.905 36.842 73.692 36.902 73.48 36.986 73.268 37.092 73.054 37.228 72.85 37.396 72.651 37.593 72.461 37.836 72.281 38.117 72.113 38.45 71.954 38.83 71.81 39.257 71.689 39.742 71.642 40.014 71.613 40.28 71.597 40.546 71.606 40.804 71.627 41.062 71.68 41.305 71.749 41.533 71.832 41.76 71.946 41.966 72.082 42.162 72.243 42.337 72.425 42.497 72.629 42.634 72.864 42.747 73.123 42.846 73.411 42.914 73.51 42.936 73.625 42.959 73.762 42.975 73.913 42.99 74.079 43.006 74.443 43.006 74.634 42.99 74.831 42.967 75.028 42.929 75.218 42.876 75.408 42.816 75.597 42.732 75.771 42.634 75.931 42.512 76.083 42.376 75.743 44.403 75.696 44.44 75.651 44.486 75.59 44.54 75.522 44.583 75.439 44.644 75.332 44.698 75.21 44.751 75.074 44.796 74.899 44.85 74.702 44.888 74.475 44.919 74.208 44.949 73.913 44.964 73.57 44.972 73.185 44.964 72.758 44.941 72.409 44.903 72.06 44.827 71.711 44.714 71.362 44.561 71.028 44.38 70.708 44.151 70.406 43.886 70.125 43.583 69.873 43.241 69.662 42.862 69.479 42.437 69.344 41.973 69.252 41.465 69.221 40.926 69.237 40.334 69.319 39.703 69.381 39.393 69.448 39.089 69.525 38.793 69.602 38.512 69.683 38.246 69.782 37.981 69.882 37.73 69.988 37.495 70.103 37.259 70.216 37.039 70.345 36.827 70.48 36.63 70.618 36.439 70.77 36.258 70.921 36.091 71.081 35.931 71.255 35.779 71.43 35.635 71.613 35.506 71.803 35.384 72.007 35.27 72.212 35.173 72.425 35.081 72.645 34.997 72.881 34.921 73.114 34.861 73.358 34.807 73.617 34.762 73.874 34.723 74.147 34.694 74.421 34.679 74.709 34.67 74.954 34.679 75.188 34.694 75.416 34.717 75.643 34.747 75.856 34.777 76.061 34.822 76.258 34.861 76.44 34.906 76.615 34.951 76.767 34.997 76.912 35.043 77.032 35.088 77.139 35.126 77.229 35.157 77.298 35.187 77.344 35.203 76.963 37.305"></polyline>
            <polyline id="Stroke-206" stroke="#FFFFFF" stroke-width="0.216" points="76.963 37.305 76.963 37.305 76.865 37.252 76.767 37.206 76.659 37.153 76.546 37.099 76.431 37.054 76.304 37.009 76.174 36.963 76.039 36.918 75.894 36.88 75.748 36.85 75.59 36.819 75.431 36.796 75.256 36.78 75.082 36.766 74.52 36.766 74.322 36.78 74.117 36.804 73.905 36.842 73.692 36.902 73.48 36.986 73.268 37.092 73.054 37.228 72.85 37.396 72.651 37.593 72.461 37.836 72.281 38.117 72.113 38.45 71.954 38.83 71.81 39.257 71.689 39.742 71.642 40.014 71.613 40.28 71.597 40.546 71.606 40.804 71.627 41.062 71.68 41.305 71.749 41.533 71.832 41.76 71.946 41.966 72.082 42.162 72.243 42.337 72.425 42.497 72.629 42.634 72.864 42.747 73.123 42.846 73.411 42.914 73.51 42.936 73.625 42.959 73.762 42.975 73.913 42.99 74.079 43.006 74.443 43.006 74.634 42.99 74.831 42.967 75.028 42.929 75.218 42.876 75.408 42.816 75.597 42.732 75.771 42.634 75.931 42.512 76.083 42.376 75.743 44.403 75.696 44.44 75.651 44.486 75.59 44.54 75.522 44.583 75.439 44.644 75.332 44.698 75.21 44.751 75.074 44.796 74.899 44.85 74.702 44.888 74.475 44.919 74.208 44.949 73.913 44.964 73.57 44.972 73.185 44.964 72.758 44.941 72.409 44.903 72.06 44.827 71.711 44.714 71.362 44.561 71.028 44.38 70.708 44.151 70.406 43.886 70.125 43.583 69.873 43.241 69.662 42.862 69.479 42.437 69.344 41.973 69.252 41.465 69.221 40.926 69.237 40.334 69.319 39.703 69.381 39.393 69.448 39.089 69.525 38.793 69.602 38.512 69.683 38.246 69.782 37.981 69.882 37.73 69.988 37.495 70.103 37.259 70.216 37.039 70.345 36.827 70.48 36.63 70.618 36.439 70.77 36.258 70.921 36.091 71.081 35.931 71.255 35.779 71.43 35.635 71.613 35.506 71.803 35.384 72.007 35.27 72.212 35.173 72.425 35.081 72.645 34.997 72.881 34.921 73.114 34.861 73.358 34.807 73.617 34.762 73.874 34.723 74.147 34.694 74.421 34.679 74.709 34.67 74.954 34.679 75.188 34.694 75.416 34.717 75.643 34.747 75.856 34.777 76.061 34.822 76.258 34.861 76.44 34.906 76.615 34.951 76.767 34.997 76.912 35.043 77.032 35.088 77.139 35.126 77.229 35.157 77.298 35.187 77.344 35.203 76.963 37.305"></polyline>
            <polyline id="Fill-207" fill="#FFFFFF" points="95.652 44.979 93.549 44.979 93.702 44.137 93.702 44.06 93.58 44.213 93.45 44.348 93.322 44.47 93.186 44.577 93.049 44.676 92.912 44.758 92.775 44.827 92.631 44.896 92.487 44.949 92.343 44.987 92.198 45.024 92.046 45.046 91.896 45.07 91.751 45.085 91.6 45.093 91.448 45.093 91.053 45.062 90.688 44.979 90.354 44.85 90.05 44.676 89.777 44.455 89.534 44.198 89.321 43.916 89.139 43.598 88.989 43.255 88.867 42.9 88.783 42.528 88.722 42.14 88.7 41.753 88.707 41.359 88.744 40.971 88.813 40.585 88.927 40.135 89.063 39.711 89.224 39.324 89.413 38.96 89.609 38.618 89.838 38.314 90.072 38.042 90.324 37.791 90.589 37.57 90.87 37.381 91.159 37.214 91.448 37.085 91.751 36.978 92.054 36.91 92.357 36.865 92.668 36.85 92.89 36.856 93.102 36.88 93.3 36.918 93.481 36.971 93.656 37.032 93.809 37.099 93.96 37.184 94.097 37.267 94.218 37.357 94.331 37.457 94.43 37.555 94.521 37.654 94.597 37.753 94.666 37.851 94.727 37.943 94.771 38.034 95.304 35.051 97.368 35.051 95.652 44.979"></polyline>
            <polyline id="Stroke-208" stroke="#FFFFFF" stroke-width="0.216" points="95.652 44.979 93.549 44.979 93.702 44.137 93.702 44.06 93.58 44.213 93.45 44.348 93.322 44.47 93.186 44.577 93.049 44.676 92.912 44.758 92.775 44.827 92.631 44.896 92.487 44.949 92.343 44.987 92.198 45.024 92.046 45.046 91.896 45.07 91.751 45.085 91.6 45.093 91.448 45.093 91.053 45.062 90.688 44.979 90.354 44.85 90.05 44.676 89.777 44.455 89.534 44.198 89.321 43.916 89.139 43.598 88.989 43.255 88.867 42.9 88.783 42.528 88.722 42.14 88.7 41.753 88.707 41.359 88.744 40.971 88.813 40.585 88.927 40.135 89.063 39.711 89.224 39.324 89.413 38.96 89.609 38.618 89.838 38.314 90.072 38.042 90.324 37.791 90.589 37.57 90.87 37.381 91.159 37.214 91.448 37.085 91.751 36.978 92.054 36.91 92.357 36.865 92.668 36.85 92.89 36.856 93.102 36.88 93.3 36.918 93.481 36.971 93.656 37.032 93.809 37.099 93.96 37.184 94.097 37.267 94.218 37.357 94.331 37.457 94.43 37.555 94.521 37.654 94.597 37.753 94.666 37.851 94.727 37.943 94.771 38.034 95.304 35.051 97.368 35.051 95.652 44.979"></polyline>
            <polyline id="Fill-209" fill="#FBB231" points="92.213 43.142 92.426 43.127 92.623 43.082 92.806 43.029 92.981 42.945 93.14 42.855 93.292 42.739 93.436 42.612 93.565 42.473 93.678 42.322 93.785 42.155 93.883 41.98 93.968 41.799 94.043 41.608 94.104 41.411 94.157 41.206 94.195 41.002 94.232 40.79 94.256 40.57 94.256 40.363 94.249 40.152 94.226 39.954 94.195 39.764 94.142 39.582 94.081 39.407 94.005 39.257 93.914 39.112 93.816 38.989 93.702 38.884 93.573 38.793 93.436 38.732 93.292 38.694 93.133 38.678 92.927 38.694 92.737 38.724 92.563 38.785 92.388 38.861 92.237 38.96 92.084 39.081 91.956 39.21 91.826 39.355 91.713 39.52 91.606 39.696 91.506 39.878 91.424 40.075 91.348 40.28 91.288 40.486 91.227 40.705 91.182 40.926 91.143 41.26 91.159 41.624 91.211 41.995 91.312 42.352 91.462 42.664 91.66 42.914 91.91 43.082 92.213 43.142"></polyline>
            <polyline id="Fill-210" fill="#FFFFFF" points="45.6 43.294 45.295 44.979 43.382 44.979 43.435 44.668 43.475 44.387 43.503 44.175 43.534 44.06 43.428 44.182 43.306 44.304 43.163 44.418 43.002 44.523 42.821 44.63 42.631 44.72 42.433 44.812 42.228 44.888 42.007 44.956 41.789 45.01 41.567 45.055 41.341 45.085 41.12 45.101 40.901 45.108 40.688 45.085 40.482 45.055 40.216 44.987 39.974 44.91 39.761 44.812 39.571 44.698 39.405 44.577 39.254 44.44 39.131 44.295 39.025 44.144 38.935 43.985 38.858 43.817 38.798 43.651 38.752 43.484 38.721 43.309 38.699 43.134 38.684 42.967 38.684 42.8 38.706 42.504 38.752 42.223 38.828 41.958 38.927 41.699 39.048 41.457 39.184 41.237 39.344 41.025 39.526 40.834 39.717 40.66 39.929 40.5 40.149 40.356 40.376 40.234 40.619 40.13 40.87 40.045 41.128 39.977 41.394 39.931 41.408 39.931 41.446 39.923 41.5 39.916 41.583 39.908 41.674 39.893 41.78 39.885 41.894 39.87 42.023 39.855 42.152 39.841 42.282 39.825 42.419 39.817 42.54 39.802 42.662 39.795 42.774 39.786 42.882 39.78 43.14 39.78 43.322 39.786 43.488 39.795 43.655 39.795 43.792 39.802 43.899 39.809 43.974 39.817 43.997 39.817 44.012 39.764 44.058 39.628 44.095 39.467 44.11 39.324 44.08 39.157 44.012 39.004 43.921 38.868 43.799 38.754 43.655 38.657 43.496 38.588 43.313 38.542 43.117 38.527 42.904 38.519 42.675 38.512 42.44 38.512 42.198 38.519 41.948 38.535 41.704 38.557 41.462 38.58 41.227 38.611 40.998 38.64 40.778 38.678 40.581 38.716 40.399 38.754 40.232 38.801 40.095 38.845 39.989 38.899 39.905 38.944 40.444 37.115 40.612 37.047 40.778 36.986 40.961 36.933 41.143 36.894 41.326 36.856 41.523 36.827 41.72 36.796 41.925 36.78 42.137 36.766 42.357 36.758 42.585 36.75 43.313 36.75 43.58 36.758 43.846 36.766 44.058 36.78 44.286 36.819 44.521 36.872 44.763 36.941 44.999 37.032 45.227 37.138 45.454 37.267 45.668 37.411 45.855 37.579 46.024 37.76 46.177 37.965 46.289 38.193 46.366 38.437 46.41 38.694 46.41 38.982 46.366 39.286 45.6 43.294"></polyline>
            <polyline id="Stroke-211" stroke="#FFFFFF" stroke-width="0.216" points="45.6 43.294 45.295 44.979 43.382 44.979 43.435 44.668 43.475 44.387 43.503 44.175 43.534 44.06 43.428 44.182 43.306 44.304 43.163 44.418 43.002 44.523 42.821 44.63 42.631 44.72 42.433 44.812 42.228 44.888 42.007 44.956 41.789 45.01 41.567 45.055 41.341 45.085 41.12 45.101 40.901 45.108 40.688 45.085 40.482 45.055 40.216 44.987 39.974 44.91 39.761 44.812 39.571 44.698 39.405 44.577 39.254 44.44 39.131 44.295 39.025 44.144 38.935 43.985 38.858 43.817 38.798 43.651 38.752 43.484 38.721 43.309 38.699 43.134 38.684 42.967 38.684 42.8 38.706 42.504 38.752 42.223 38.828 41.958 38.927 41.699 39.048 41.457 39.184 41.237 39.344 41.025 39.526 40.834 39.717 40.66 39.929 40.5 40.149 40.356 40.376 40.234 40.619 40.13 40.87 40.045 41.128 39.977 41.394 39.931 41.408 39.931 41.446 39.923 41.5 39.916 41.583 39.908 41.674 39.893 41.78 39.885 41.894 39.87 42.023 39.855 42.152 39.841 42.282 39.825 42.419 39.817 42.54 39.802 42.662 39.795 42.774 39.786 42.882 39.78 43.14 39.78 43.322 39.786 43.488 39.795 43.655 39.795 43.792 39.802 43.899 39.809 43.974 39.817 43.997 39.817 44.012 39.764 44.058 39.628 44.095 39.467 44.11 39.324 44.08 39.157 44.012 39.004 43.921 38.868 43.799 38.754 43.655 38.657 43.496 38.588 43.313 38.542 43.117 38.527 42.904 38.519 42.675 38.512 42.44 38.512 42.198 38.519 41.948 38.535 41.704 38.557 41.462 38.58 41.227 38.611 40.998 38.64 40.778 38.678 40.581 38.716 40.399 38.754 40.232 38.801 40.095 38.845 39.989 38.899 39.905 38.944 40.444 37.115 40.612 37.047 40.778 36.986 40.961 36.933 41.143 36.894 41.326 36.856 41.523 36.827 41.72 36.796 41.925 36.78 42.137 36.766 42.357 36.758 42.585 36.75 43.313 36.75 43.58 36.758 43.846 36.766 44.058 36.78 44.286 36.819 44.521 36.872 44.763 36.941 44.999 37.032 45.227 37.138 45.454 37.267 45.668 37.411 45.855 37.579 46.024 37.76 46.177 37.965 46.289 38.193 46.366 38.437 46.41 38.694 46.41 38.982 46.366 39.286 45.6 43.294"></polyline>
            <polyline id="Fill-212" fill="#EC1C2E" points="43.77 41.312 43.762 41.275 43.731 41.237 43.686 41.214 43.61 41.199 43.526 41.184 43.428 41.176 43.199 41.176 43.079 41.184 42.95 41.199 42.829 41.214 42.707 41.23 42.593 41.245 42.486 41.267 42.396 41.29 42.312 41.312 42.259 41.327 42.198 41.351 42.115 41.381 42.03 41.419 41.932 41.465 41.833 41.518 41.728 41.571 41.629 41.632 41.523 41.707 41.424 41.783 41.332 41.875 41.25 41.966 41.173 42.064 41.12 42.171 41.076 42.292 41.051 42.413 41.045 42.672 41.082 42.876 41.158 43.029 41.257 43.142 41.371 43.218 41.5 43.263 41.622 43.286 41.743 43.294 41.97 43.286 42.176 43.263 42.373 43.232 42.548 43.187 42.699 43.134 42.843 43.067 42.972 42.998 43.087 42.914 43.186 42.838 43.275 42.747 43.352 42.664 43.413 42.573 43.465 42.482 43.513 42.391 43.55 42.307 43.571 42.223 43.633 42.004 43.686 41.753 43.731 41.51 43.77 41.312"></polyline>
            <polyline id="Fill-213" fill="#FFFFFF" points="29.627 44.979 27.563 44.979 29.287 35.013 32.876 35.013 33.219 40.926 35.701 35.013 39.451 35.013 37.689 44.979 35.625 44.979 36.93 37.533 36.848 37.533 33.757 44.979 31.428 44.979 31.412 44.668 31.359 43.84 31.291 42.664 31.214 41.312 31.138 39.954 31.07 38.763 31.017 37.898 31.001 37.533 30.888 37.533 29.627 44.979"></polyline>
            <polyline id="Stroke-214" stroke="#FFFFFF" stroke-width="0.216" points="29.627 44.979 27.563 44.979 29.287 35.013 32.876 35.013 33.219 40.926 35.701 35.013 39.451 35.013 37.689 44.979 35.625 44.979 36.93 37.533 36.848 37.533 33.757 44.979 31.428 44.979 31.412 44.668 31.359 43.84 31.291 42.664 31.214 41.312 31.138 39.954 31.07 38.763 31.017 37.898 31.001 37.533 30.888 37.533 29.627 44.979"></polyline>
            <polyline id="Fill-215" fill="#FFFFFF" points="83.273 43.294 82.961 44.979 81.056 44.979 81.07 44.668 81.078 44.395 81.078 44.19 81.093 44.099 80.995 44.213 80.88 44.326 80.745 44.432 80.592 44.54 80.434 44.637 80.251 44.728 80.061 44.82 79.871 44.896 79.666 44.956 79.453 45.016 79.242 45.055 79.029 45.085 78.808 45.101 78.597 45.108 78.391 45.085 78.186 45.055 77.913 44.987 77.671 44.91 77.457 44.812 77.259 44.698 77.093 44.577 76.948 44.44 76.827 44.295 76.722 44.144 76.63 43.985 76.562 43.817 76.501 43.651 76.463 43.484 76.431 43.309 76.41 43.134 76.394 42.967 76.394 42.8 76.41 42.504 76.456 42.223 76.523 41.958 76.623 41.699 76.736 41.457 76.88 41.237 77.04 41.025 77.214 40.834 77.412 40.66 77.617 40.5 77.837 40.356 78.073 40.234 78.308 40.13 78.558 40.045 78.808 39.977 79.066 39.931 79.082 39.931 79.119 39.923 79.173 39.916 79.249 39.908 79.348 39.893 79.453 39.885 79.568 39.87 79.688 39.855 79.818 39.841 79.955 39.825 80.084 39.817 80.213 39.802 80.334 39.795 80.44 39.786 80.547 39.78 80.813 39.78 80.995 39.786 81.169 39.795 81.336 39.795 81.481 39.802 81.602 39.809 81.67 39.817 81.701 39.817 81.717 39.764 81.739 39.628 81.761 39.467 81.776 39.324 81.747 39.157 81.687 39.004 81.588 38.868 81.472 38.754 81.336 38.657 81.177 38.588 81.01 38.542 80.827 38.527 80.614 38.519 80.388 38.512 80.152 38.512 79.908 38.519 79.659 38.535 79.416 38.557 79.173 38.58 78.937 38.611 78.709 38.64 78.49 38.678 78.292 38.716 78.11 38.754 77.943 38.801 77.807 38.845 77.699 38.899 77.617 38.944 78.148 37.115 78.314 37.047 78.49 36.986 78.665 36.933 78.846 36.894 79.036 36.856 79.227 36.827 79.422 36.796 79.629 36.78 79.84 36.766 80.061 36.758 80.281 36.75 80.995 36.75 81.253 36.758 81.511 36.766 81.724 36.78 81.951 36.819 82.186 36.872 82.43 36.941 82.666 37.032 82.899 37.138 83.127 37.267 83.34 37.411 83.531 37.579 83.704 37.76 83.855 37.965 83.97 38.193 84.054 38.437 84.108 38.694 84.108 38.982 84.069 39.286 83.273 43.294"></polyline>
            <polyline id="Fill-216" fill="#FFFFFF" points="82.961 45.032 83.006 44.987 83.317 43.301 83.226 43.286 82.915 44.972 82.961 44.926 82.961 45.032 82.998 45.024 83.006 44.987 82.961 45.032"></polyline>
            <polyline id="Fill-217" fill="#FFFFFF" points="81.01 44.979 81.056 45.032 82.961 45.032 82.961 44.926 81.056 44.926 81.102 44.979 81.01 44.979 81.003 45.032 81.056 45.032 81.01 44.979"></polyline>
            <polyline id="Fill-218" fill="#FFFFFF" points="81.132 44.128 81.063 44.068 81.033 44.19 81.024 44.395 81.024 44.668 81.01 44.979 81.102 44.979 81.116 44.668 81.132 44.395 81.124 44.19 81.124 44.128 81.056 44.068 81.132 44.128"></polyline>
            <polyline id="Fill-219" fill="#FFFFFF" points="78.179 45.101 78.179 45.101 78.391 45.131 78.597 45.153 78.808 45.147 79.029 45.131 79.249 45.101 79.461 45.062 79.674 45.003 79.886 44.941 80.076 44.865 80.273 44.775 80.457 44.684 80.614 44.577 80.774 44.47 80.91 44.365 81.033 44.242 81.132 44.128 81.056 44.068 80.957 44.182 80.851 44.288 80.713 44.395 80.57 44.501 80.41 44.592 80.229 44.684 80.046 44.775 79.856 44.85 79.659 44.91 79.446 44.972 79.233 45.01 79.029 45.039 78.808 45.055 78.597 45.062 78.391 45.039 78.194 45.01 78.179 45.101"></polyline>
            <polyline id="Fill-220" fill="#FFFFFF" points="76.342 42.8 76.342 42.8 76.349 42.967 76.364 43.134 76.388 43.317 76.418 43.491 76.456 43.658 76.517 43.833 76.584 44.007 76.684 44.167 76.789 44.326 76.912 44.47 77.063 44.614 77.237 44.736 77.435 44.858 77.656 44.956 77.905 45.032 78.179 45.101 78.194 45.01 77.92 44.941 77.686 44.865 77.48 44.767 77.282 44.66 77.123 44.54 76.986 44.409 76.865 44.265 76.758 44.121 76.676 43.962 76.608 43.802 76.546 43.644 76.509 43.476 76.479 43.301 76.456 43.134 76.44 42.967 76.448 42.8 76.342 42.8"></polyline>
            <polyline id="Fill-221" fill="#FFFFFF" points="79.066 39.885 79.066 39.885 78.801 39.931 78.543 40 78.292 40.083 78.05 40.189 77.813 40.31 77.587 40.463 77.381 40.623 77.184 40.804 77.002 40.994 76.842 41.206 76.69 41.434 76.577 41.685 76.479 41.943 76.41 42.216 76.364 42.504 76.342 42.8 76.448 42.8 76.456 42.504 76.501 42.231 76.569 41.973 76.668 41.715 76.781 41.479 76.917 41.267 77.078 41.054 77.244 40.865 77.441 40.698 77.647 40.538 77.858 40.402 78.096 40.28 78.322 40.175 78.573 40.091 78.816 40.022 79.066 39.977 79.066 39.885"></polyline>
            <polyline id="Fill-222" fill="#FFFFFF" points="80.63 39.726 80.547 39.726 80.44 39.742 80.334 39.751 80.213 39.757 80.084 39.771 79.955 39.78 79.818 39.795 79.688 39.809 79.568 39.825 79.453 39.841 79.348 39.847 79.249 39.863 79.173 39.87 79.112 39.878 79.082 39.885 79.066 39.885 79.066 39.977 79.082 39.977 79.127 39.968 79.173 39.962 79.249 39.954 79.348 39.939 79.453 39.931 79.568 39.916 79.688 39.9 79.818 39.885 79.955 39.87 80.084 39.863 80.213 39.847 80.334 39.841 80.44 39.832 80.63 39.832 80.63 39.726"></polyline>
            <polyline id="Fill-223" fill="#FFFFFF" points="81.655 39.809 81.701 39.771 81.67 39.771 81.602 39.764 81.481 39.757 81.336 39.742 80.995 39.742 80.813 39.726 80.63 39.726 80.63 39.832 80.995 39.832 81.169 39.847 81.481 39.847 81.602 39.855 81.67 39.863 81.701 39.863 81.747 39.825 81.701 39.863 81.739 39.87 81.747 39.825 81.655 39.809"></polyline>
            <polyline id="Fill-224" fill="#FFFFFF" points="81.731 39.324 81.724 39.324 81.717 39.467 81.692 39.62 81.67 39.757 81.655 39.809 81.747 39.825 81.761 39.771 81.784 39.634 81.806 39.467 81.829 39.324 81.731 39.324"></polyline>
            <polyline id="Fill-225" fill="#FFFFFF" points="80.827 38.572 80.827 38.58 81.003 38.588 81.162 38.634 81.313 38.701 81.442 38.793 81.548 38.899 81.639 39.028 81.701 39.164 81.731 39.324 81.822 39.324 81.791 39.15 81.731 38.982 81.625 38.839 81.504 38.716 81.359 38.611 81.192 38.542 81.017 38.497 80.827 38.474 80.827 38.572"></polyline>
            <polyline id="Fill-226" fill="#FFFFFF" points="77.571 38.937 77.647 38.982 77.723 38.944 77.821 38.891 77.952 38.845 78.117 38.801 78.301 38.763 78.497 38.724 78.717 38.686 78.937 38.657 79.173 38.625 79.416 38.602 79.659 38.58 79.908 38.565 80.614 38.565 80.827 38.572 80.827 38.481 80.614 38.474 80.388 38.458 80.152 38.458 79.908 38.474 79.659 38.488 79.416 38.512 79.173 38.535 78.937 38.565 78.702 38.594 78.481 38.634 78.285 38.672 78.102 38.71 77.935 38.754 77.792 38.801 77.678 38.853 77.587 38.906 77.663 38.952 77.571 38.937"></polyline>
            <polyline id="Fill-227" fill="#FFFFFF" points="78.134 37.069 78.102 37.108 77.571 38.937 77.663 38.952 78.194 37.122 78.163 37.161 78.134 37.069 78.11 37.077 78.102 37.108 78.134 37.069"></polyline>
            <polyline id="Fill-228" fill="#FFFFFF" points="81.511 36.721 81.511 36.721 81.253 36.706 80.995 36.697 80.281 36.697 80.061 36.713 79.84 36.721 79.629 36.737 79.422 36.75 79.218 36.78 79.029 36.811 78.839 36.85 78.656 36.888 78.475 36.941 78.301 37.001 78.134 37.069 78.163 37.161 78.331 37.092 78.504 37.032 78.671 36.978 78.854 36.941 79.045 36.902 79.233 36.872 79.422 36.842 79.629 36.827 79.84 36.811 80.061 36.804 80.995 36.804 81.253 36.811 81.511 36.811 81.511 36.721"></polyline>
            <polyline id="Fill-229" fill="#FFFFFF" points="84.115 39.294 84.115 39.294 84.152 38.982 84.152 38.694 84.1 38.427 84.016 38.177 83.895 37.943 83.741 37.73 83.56 37.541 83.371 37.373 83.15 37.228 82.922 37.092 82.68 36.986 82.444 36.894 82.195 36.827 81.958 36.774 81.724 36.737 81.511 36.721 81.511 36.811 81.724 36.827 81.943 36.865 82.179 36.918 82.413 36.986 82.65 37.077 82.877 37.184 83.105 37.305 83.31 37.449 83.5 37.615 83.667 37.791 83.818 37.987 83.924 38.209 84.008 38.444 84.062 38.694 84.062 38.982 84.023 39.279 84.115 39.294"></polyline>
            <polyline id="Fill-230" fill="#FFFFFF" points="83.317 43.301 83.317 43.301 84.115 39.294 84.023 39.279 83.226 43.286 83.317 43.301"></polyline>
            <polyline id="Fill-231" fill="#FBB231" points="81.435 41.312 81.42 41.267 81.391 41.23 81.336 41.206 81.261 41.184 81.177 41.176 81.078 41.168 80.964 41.168 80.851 41.176 80.729 41.191 80.607 41.206 80.486 41.222 80.371 41.237 80.26 41.26 80.16 41.275 80.061 41.298 79.985 41.312 79.933 41.32 79.871 41.343 79.796 41.366 79.711 41.396 79.612 41.441 79.522 41.488 79.416 41.541 79.317 41.608 79.218 41.677 79.119 41.76 79.036 41.843 78.953 41.943 78.884 42.049 78.831 42.162 78.786 42.284 78.764 42.413 78.756 42.672 78.792 42.876 78.854 43.029 78.945 43.142 79.059 43.218 79.188 43.263 79.317 43.286 79.446 43.294 79.674 43.286 79.886 43.263 80.084 43.225 80.26 43.173 80.425 43.112 80.57 43.044 80.706 42.967 80.827 42.876 80.935 42.793 81.024 42.695 81.108 42.603 81.177 42.504 81.229 42.413 81.269 42.322 81.299 42.231 81.321 42.148 81.352 41.935 81.391 41.715 81.42 41.503 81.435 41.312"></polyline>
            <polyline id="Fill-232" fill="#FFFFFF" points="97.071 43.94 97.088 43.764 97.146 43.559 97.253 43.377 97.382 43.218 97.542 43.09 97.726 42.998 97.923 42.936 98.134 42.914 98.348 42.936 98.544 42.998 98.727 43.09 98.887 43.218 99.016 43.377 99.122 43.559 99.182 43.764 99.198 43.94 98.97 43.94 98.963 43.802 98.916 43.635 98.84 43.484 98.742 43.354 98.621 43.248 98.477 43.173 98.31 43.119 98.134 43.104 97.96 43.119 97.794 43.173 97.649 43.248 97.527 43.354 97.429 43.484 97.354 43.635 97.308 43.802 97.292 43.94 97.071 43.94"></polyline>
            <polyline id="Fill-233" fill="#FFFFFF" points="97.755 43.94 97.755 43.484 98.172 43.484 98.264 43.491 98.348 43.506 98.408 43.529 98.461 43.559 98.499 43.605 98.529 43.651 98.544 43.703 98.552 43.757 98.544 43.825 98.529 43.878 98.507 43.924 98.491 43.94 98.172 43.94 98.202 43.931 98.256 43.924 98.301 43.909 98.34 43.894 98.37 43.871 98.386 43.847 98.4 43.811 98.4 43.757 98.392 43.719 98.377 43.688 98.355 43.674 98.332 43.658 98.293 43.651 98.256 43.644 97.945 43.644 97.945 43.94 97.755 43.94"></polyline>
            <polyline id="Fill-234" fill="#FFFFFF" points="97.071 43.94 97.065 43.985 97.088 44.205 97.146 44.409 97.253 44.592 97.382 44.744 97.542 44.872 97.726 44.972 97.923 45.032 98.134 45.055 98.348 45.032 98.544 44.972 98.727 44.872 98.887 44.744 99.016 44.592 99.122 44.409 99.182 44.205 99.204 43.985 99.198 43.94 98.97 43.94 98.978 43.985 98.963 44.167 98.916 44.334 98.84 44.479 98.742 44.606 98.621 44.714 98.477 44.796 98.31 44.85 98.134 44.865 97.96 44.85 97.794 44.796 97.649 44.714 97.527 44.606 97.429 44.479 97.354 44.334 97.308 44.167 97.292 43.985 97.292 43.94 97.071 43.94"></polyline>
            <polyline id="Fill-235" fill="#FFFFFF" points="97.755 43.94 97.755 44.403 97.945 44.403 97.945 44.023 98.134 44.023 98.361 44.403 98.515 44.403 98.287 44.023 98.34 44.023 98.392 44.007 98.438 43.992 98.477 43.962 98.491 43.94 98.172 43.94 98.134 43.947 97.945 43.947 97.945 43.94 97.755 43.94"></polyline>
            <path d="M98.134,44.865 L98.134,44.865 L98.31,44.85 L98.477,44.796 L98.621,44.714 L98.742,44.606 L98.84,44.479 L98.916,44.334 L98.963,44.167 L98.978,43.985 L98.963,43.802 L98.916,43.635 L98.84,43.484 L98.742,43.354 L98.621,43.248 L98.477,43.173 L98.31,43.119 L98.134,43.104 L97.96,43.119 L97.794,43.173 L97.649,43.248 L97.527,43.354 L97.429,43.484 L97.354,43.635 L97.308,43.802 L97.292,43.985 L97.308,44.167 L97.354,44.334 L97.429,44.479 L97.527,44.606 L97.649,44.714 L97.794,44.796 L97.96,44.85 L98.134,44.865 M98.134,43.947 L98.134,43.947 L98.202,43.931 L98.256,43.924 L98.301,43.909 L98.34,43.894 L98.37,43.871 L98.386,43.847 L98.4,43.811 L98.4,43.757 L98.392,43.719 L98.377,43.688 L98.355,43.674 L98.332,43.658 L98.293,43.651 L98.256,43.644 L97.945,43.644 L97.945,43.947 L98.134,43.947 M97.945,44.403 L97.755,44.403 L97.755,43.484 L98.172,43.484 L98.264,43.491 L98.348,43.506 L98.408,43.529 L98.461,43.559 L98.499,43.605 L98.529,43.651 L98.544,43.703 L98.552,43.757 L98.544,43.825 L98.529,43.878 L98.507,43.924 L98.477,43.962 L98.438,43.992 L98.392,44.007 L98.34,44.023 L98.287,44.023 L98.515,44.403 L98.361,44.403 L98.134,44.023 L97.945,44.023 L97.945,44.403 M97.065,43.985 L97.065,43.985 L97.088,43.764 L97.146,43.559 L97.253,43.377 L97.382,43.218 L97.542,43.09 L97.726,42.998 L97.923,42.936 L98.134,42.914 L98.348,42.936 L98.544,42.998 L98.727,43.09 L98.887,43.218 L99.016,43.377 L99.122,43.559 L99.182,43.764 L99.204,43.985 L99.182,44.205 L99.122,44.409 L99.016,44.592 L98.887,44.744 L98.727,44.872 L98.544,44.972 L98.348,45.032 L98.134,45.055 L97.923,45.032 L97.726,44.972 L97.542,44.872 L97.382,44.744 L97.253,44.592 L97.146,44.409 L97.088,44.205 L97.065,43.985" id="Stroke-236" stroke="#FFFFFF" stroke-width="0.216"></path>
            <polyline id="Fill-237" fill="#FFFFFF" points="83.842 44.979 85.983 44.979 86.749 40.66 86.779 40.494 86.825 40.326 86.87 40.159 86.931 39.992 87.007 39.825 87.098 39.665 87.197 39.514 87.318 39.369 87.455 39.241 87.606 39.119 87.781 39.004 87.978 38.913 88.198 38.839 88.441 38.778 88.707 38.732 89.002 38.716 89.192 38.716 89.534 36.766 89.321 36.78 89.117 36.804 88.927 36.842 88.744 36.894 88.578 36.955 88.418 37.032 88.266 37.115 88.122 37.206 87.986 37.313 87.856 37.419 87.735 37.541 87.614 37.661 87.5 37.791 87.386 37.934 87.272 38.071 87.167 38.223 87.395 36.85 85.261 36.85 83.842 44.979"></polyline>
            <polyline id="Stroke-238" stroke="#FFFFFF" stroke-width="0.216" points="83.842 44.979 85.983 44.979 86.749 40.66 86.779 40.494 86.825 40.326 86.87 40.159 86.931 39.992 87.007 39.825 87.098 39.665 87.197 39.514 87.318 39.369 87.455 39.241 87.606 39.119 87.781 39.004 87.978 38.913 88.198 38.839 88.441 38.778 88.707 38.732 89.002 38.716 89.192 38.716 89.534 36.766 89.321 36.78 89.117 36.804 88.927 36.842 88.744 36.894 88.578 36.955 88.418 37.032 88.266 37.115 88.122 37.206 87.986 37.313 87.856 37.419 87.735 37.541 87.614 37.661 87.5 37.791 87.386 37.934 87.272 38.071 87.167 38.223 87.395 36.85 85.261 36.85 83.842 44.979"></polyline>
            <polyline id="Fill-239" fill="#FFFFFF" points="63.741 44.979 65.919 44.979 66.648 40.66 66.679 40.494 66.716 40.334 66.754 40.175 66.808 40.022 66.868 39.87 66.944 39.726 67.035 39.59 67.141 39.461 67.263 39.345 67.399 39.233 67.567 39.141 67.749 39.058 67.961 38.989 68.197 38.93 68.455 38.891 68.75 38.868 68.774 38.868 68.804 38.876 68.842 38.884 68.88 38.884 68.917 38.891 68.949 38.899 68.97 38.906 68.979 38.906 68.986 38.876 69.009 38.785 69.039 38.649 69.078 38.481 69.13 38.284 69.184 38.071 69.252 37.859 69.319 37.645 69.381 37.502 69.457 37.357 69.533 37.214 69.608 37.085 69.676 36.971 69.729 36.88 69.768 36.827 69.782 36.804 69.776 36.804 69.745 36.796 69.708 36.788 69.654 36.78 69.602 36.78 69.541 36.774 69.487 36.766 69.434 36.766 69.198 36.78 68.986 36.804 68.789 36.842 68.607 36.888 68.433 36.948 68.272 37.025 68.128 37.099 67.991 37.19 67.863 37.29 67.741 37.404 67.627 37.518 67.514 37.645 67.399 37.776 67.293 37.921 67.18 38.071 67.065 38.223 67.338 36.85 65.16 36.85 63.741 44.979"></polyline>
            <polyline id="Stroke-240" stroke="#FFFFFF" stroke-width="0.216" points="63.741 44.979 65.919 44.979 66.648 40.66 66.679 40.494 66.716 40.334 66.754 40.175 66.808 40.022 66.868 39.87 66.944 39.726 67.035 39.59 67.141 39.461 67.263 39.345 67.399 39.233 67.567 39.141 67.749 39.058 67.961 38.989 68.197 38.93 68.455 38.891 68.75 38.868 68.774 38.868 68.804 38.876 68.842 38.884 68.88 38.884 68.917 38.891 68.949 38.899 68.97 38.906 68.979 38.906 68.986 38.876 69.009 38.785 69.039 38.649 69.078 38.481 69.13 38.284 69.184 38.071 69.252 37.859 69.319 37.645 69.381 37.502 69.457 37.357 69.533 37.214 69.608 37.085 69.676 36.971 69.729 36.88 69.768 36.827 69.782 36.804 69.776 36.804 69.745 36.796 69.708 36.788 69.654 36.78 69.602 36.78 69.541 36.774 69.487 36.766 69.434 36.766 69.198 36.78 68.986 36.804 68.789 36.842 68.607 36.888 68.433 36.948 68.272 37.025 68.128 37.099 67.991 37.19 67.863 37.29 67.741 37.404 67.627 37.518 67.514 37.645 67.399 37.776 67.293 37.921 67.18 38.071 67.065 38.223 67.338 36.85 65.16 36.85 63.741 44.979"></polyline>
            <polyline id="Fill-241" fill="#FBB231" points="97.088 52.965 97.088 52.934 97.146 52.737 97.253 52.562 97.382 52.411 97.542 52.289 97.726 52.197 97.923 52.145 98.134 52.122 98.348 52.145 98.544 52.197 98.727 52.289 98.887 52.411 99.016 52.562 99.122 52.737 99.182 52.934 99.182 52.965 98.963 52.965 98.916 52.806 98.84 52.661 98.742 52.531 98.621 52.426 98.477 52.342 98.31 52.289 98.134 52.274 97.96 52.289 97.794 52.342 97.649 52.426 97.527 52.531 97.429 52.661 97.354 52.806 97.308 52.965 97.088 52.965"></polyline>
            <polyline id="Fill-242" fill="#FBB231" points="97.755 52.965 97.755 52.7 98.264 52.7 98.348 52.715 98.408 52.728 98.461 52.759 98.499 52.798 98.529 52.843 98.544 52.896 98.552 52.965 98.4 52.965 98.4 52.926 98.392 52.888 98.377 52.858 98.355 52.843 98.332 52.828 98.293 52.82 98.256 52.813 97.945 52.813 97.945 52.965 97.755 52.965"></polyline>
            <polyline id="Fill-243" fill="#FBB231" points="97.065 53.131 97.088 52.965 97.308 52.965 97.308 52.971 97.292 53.131 97.065 53.131"></polyline>
            <polyline id="Fill-244" fill="#FBB231" points="97.755 53.131 97.755 52.965 97.945 52.965 97.945 53.116 98.134 53.116 98.202 53.102 98.256 53.094 98.301 53.078 98.34 53.063 98.37 53.041 98.386 53.017 98.4 52.981 98.4 52.965 98.552 52.965 98.544 53.017 98.529 53.063 98.507 53.102 98.477 53.131 97.755 53.131"></polyline>
            <polyline id="Fill-245" fill="#FBB231" points="98.978 53.131 98.963 52.971 98.963 52.965 99.182 52.965 99.204 53.131 98.978 53.131"></polyline>
            <polyline id="Fill-246" fill="#FBB231" points="97.065 53.131 97.065 53.154 97.088 53.374 97.146 53.579 97.253 53.761 97.382 53.921 97.542 54.051 97.726 54.14 97.923 54.202 98.134 54.224 98.348 54.202 98.544 54.14 98.727 54.051 98.887 53.921 99.016 53.761 99.122 53.579 99.182 53.374 99.204 53.154 99.204 53.131 98.978 53.131 98.978 53.154 98.963 53.337 98.916 53.504 98.84 53.647 98.742 53.775 98.621 53.884 98.477 53.967 98.31 54.02 98.134 54.035 97.96 54.02 97.794 53.967 97.649 53.884 97.527 53.775 97.429 53.647 97.354 53.504 97.308 53.337 97.292 53.154 97.292 53.131 97.065 53.131"></polyline>
            <polyline id="Fill-247" fill="#FBB231" points="97.755 53.131 97.755 53.572 97.945 53.572 97.945 53.192 98.134 53.192 98.361 53.572 98.515 53.572 98.287 53.192 98.34 53.192 98.392 53.177 98.438 53.162 98.477 53.131 97.755 53.131"></polyline>
            <path d="M61.919,39.968 L59.146,39.968 L59.148,39.962 L59.144,39.961 L59.163,39.855 L59.194,39.696 L59.239,39.544 L59.292,39.393 L59.361,39.257 L59.43,39.127 L59.512,39.004 L59.604,38.891 L59.703,38.785 L59.8,38.694 L59.916,38.611 L60.028,38.542 L60.158,38.481 L60.287,38.437 L60.416,38.405 L60.552,38.383 L60.697,38.375 L60.833,38.39 L60.962,38.413 L61.084,38.444 L61.205,38.488 L61.319,38.55 L61.433,38.618 L61.533,38.694 L61.623,38.785 L61.699,38.891 L61.775,39.004 L61.828,39.134 L61.881,39.279 L61.91,39.43 L61.926,39.597 L61.935,39.78 L61.919,39.968 L61.919,39.968 Z M63.977,39.27 L63.916,38.816 L63.809,38.413 L63.658,38.065 L63.467,37.76 L63.24,37.502 L62.99,37.29 L62.717,37.108 L62.42,36.971 L62.117,36.856 L61.806,36.78 L61.494,36.728 L61.183,36.697 L60.887,36.689 L60.271,36.721 L59.726,36.811 L59.231,36.948 L58.792,37.138 L58.412,37.366 L58.077,37.624 L57.781,37.912 L57.539,38.216 L57.326,38.535 L57.152,38.868 L57.016,39.196 L56.901,39.52 L56.818,39.841 L56.757,40.135 L56.712,40.417 L56.682,40.66 L56.644,41.282 L56.667,41.843 L56.75,42.352 L56.878,42.8 L57.062,43.202 L57.282,43.552 L57.539,43.863 L57.835,44.121 L58.154,44.342 L58.497,44.53 L58.853,44.676 L59.224,44.789 L59.604,44.881 L59.984,44.934 L60.363,44.972 L60.734,44.979 L60.985,44.979 L61.222,44.972 L61.425,44.972 L61.623,44.964 L61.798,44.949 L61.957,44.934 L62.108,44.919 L62.245,44.896 L62.374,44.872 L62.495,44.843 L62.618,44.804 L62.732,44.767 L62.845,44.72 L62.967,44.676 L63.087,44.614 L63.209,44.554 L63.513,42.687 L63.293,42.816 L63.08,42.936 L62.861,43.029 L62.647,43.112 L62.443,43.18 L62.23,43.225 L62.025,43.263 L61.82,43.294 L61.615,43.309 L61.418,43.317 L61.213,43.317 L61.016,43.309 L60.819,43.294 L60.621,43.271 L60.431,43.248 L60.234,43.218 L60.082,43.187 L59.93,43.134 L59.779,43.067 L59.641,42.982 L59.505,42.892 L59.383,42.779 L59.27,42.664 L59.163,42.534 L59.073,42.406 L58.99,42.263 L58.928,42.125 L58.875,41.98 L58.845,41.836 L58.83,41.691 L58.836,41.563 L58.854,41.465 L63.779,41.465 L63.816,41.002 L63.931,40.363 L63.984,39.786 L63.977,39.27 L63.977,39.27 Z" id="Fill-248" fill="#FFFFFF"></path>
        </g>
    </g>
</svg>