<?xml version="1.0" encoding="UTF-8" standalone="no"?>
<svg width="126px" height="80px" viewBox="0 0 126 80" version="1.1" xmlns="http://www.w3.org/2000/svg" xmlns:xlink="http://www.w3.org/1999/xlink">
    <!-- Generator: Sketch 40.3 (33839) - http://www.bohemiancoding.com/sketch -->
    <title>paypal</title>
    <desc>Created with Sketch.</desc>
    <defs></defs>
    <g id="Page-1" stroke="none" stroke-width="1" fill="none" fill-rule="evenodd">
        <g id="paypal">
            <path d="M121.498,79.39 L4.43,79.39 C2.121,79.39 0.25,77.518 0.25,75.208 L0.25,5.176 C0.25,2.866 2.121,0.996 4.43,0.996 L121.498,0.996 C123.807,0.996 125.68,2.866 125.68,5.176 L125.68,75.208 C125.68,77.518 123.807,79.39 121.498,79.39 Z" id="Fill-345" fill="#1C3663"></path>
            <path d="M60.885,35.436 C60.439,35.436 59.852,35.799 59.574,36.236 C59.574,36.236 56.582,41.366 56.289,41.878 C56.127,42.154 55.967,41.979 55.939,41.877 C55.918,41.752 55.014,36.27 55.014,36.27 C54.912,35.829 54.449,35.45 53.873,35.452 L52.008,35.455 C51.557,35.455 51.277,35.814 51.379,36.25 C51.379,36.25 52.803,44.334 53.082,46.235 C53.221,47.285 53.066,47.473 53.066,47.473 L51.219,50.697 C50.947,51.133 51.096,51.492 51.543,51.492 L53.705,51.49 C54.152,51.49 54.746,51.134 55.014,50.696 L63.33,36.628 C63.33,36.628 64.125,35.426 63.393,35.436 C62.893,35.445 60.885,35.436 60.885,35.436" id="Fill-346" fill="#FFFFFF"></path>
            <path d="M39.137,34.121 C38.877,33.615 38.488,33.204 37.992,32.894 C37.477,32.575 36.879,32.357 36.18,32.224 C35.479,32.099 34.656,32.038 33.715,32.029 L29.355,32.032 C28.902,32.038 28.459,32.392 28.355,32.827 L25.418,45.606 C25.314,46.042 25.6,46.403 26.049,46.403 L28.137,46.403 C28.588,46.403 29.037,46.051 29.137,45.606 L29.857,42.504 C29.953,42.071 30.4,41.711 30.852,41.711 L31.449,41.711 C34.002,41.709 35.984,41.187 37.406,40.141 C38.828,39.098 39.539,37.715 39.535,36.003 C39.539,35.252 39.41,34.624 39.137,34.121 M34.629,38.297 C33.998,38.757 33.127,38.988 31.994,38.988 L31.482,38.988 C31.031,38.988 30.746,38.63 30.846,38.19 L31.475,35.482 C31.568,35.046 32.021,34.683 32.471,34.688 L33.154,34.683 C33.953,34.683 34.559,34.819 34.969,35.092 C35.373,35.355 35.576,35.773 35.57,36.335 C35.582,37.18 35.262,37.834 34.629,38.297" id="Fill-347" fill="#FFFFFF"></path>
            <path d="M45.508,43.79 C45.248,43.953 44.975,44.092 44.688,44.212 C44.303,44.366 43.936,44.448 43.598,44.448 C43.08,44.448 42.68,44.375 42.41,44.218 C42.141,44.07 41.998,43.81 42.002,43.44 C42.002,43.012 42.102,42.681 42.307,42.42 C42.514,42.169 42.818,41.968 43.195,41.818 C43.574,41.689 44.039,41.586 44.574,41.509 C45.051,41.449 45.992,41.342 46.111,41.34 C46.232,41.34 46.313,41.273 46.258,41.593 C46.236,41.733 45.963,42.849 45.838,43.356 C45.801,43.509 45.6,43.73 45.508,43.79 L45.508,43.79 Z M49.201,35.947 C48.408,35.505 47.17,35.281 45.473,35.281 C44.633,35.281 43.789,35.347 42.943,35.479 C42.32,35.574 42.26,35.591 41.871,35.674 C41.078,35.848 40.955,36.642 40.955,36.642 L40.701,37.69 C40.557,38.362 40.939,38.334 41.107,38.281 C41.455,38.177 41.643,38.074 42.35,37.913 C43.025,37.759 43.74,37.645 44.309,37.649 C45.145,37.649 45.781,37.74 46.203,37.916 C46.627,38.101 46.834,38.416 46.834,38.864 C46.838,38.971 46.838,39.073 46.801,39.159 C46.766,39.243 46.699,39.322 46.498,39.348 C45.309,39.42 44.453,39.529 43.42,39.678 C42.402,39.822 41.514,40.067 40.77,40.407 C39.975,40.759 39.381,41.23 38.975,41.827 C38.574,42.426 38.375,43.152 38.373,44.006 C38.373,44.815 38.664,45.473 39.227,45.985 C39.795,46.49 40.533,46.74 41.428,46.74 C41.986,46.736 42.424,46.695 42.738,46.617 C43.049,46.538 43.389,46.427 43.744,46.273 C44.012,46.161 44.301,45.999 44.605,45.797 C44.91,45.594 45.121,45.449 45.393,45.272 L45.4,45.288 L45.324,45.624 C45.324,45.628 45.32,45.63 45.32,45.634 L45.324,45.639 C45.234,46.045 45.479,46.381 45.879,46.42 L45.885,46.427 L45.92,46.427 L45.922,46.432 C46.188,46.432 47.102,46.429 47.529,46.427 L47.826,46.427 C47.846,46.427 47.85,46.421 47.855,46.416 C48.266,46.364 48.656,46.033 48.75,45.634 L50.275,39.051 C50.309,38.898 50.336,38.718 50.354,38.512 C50.373,38.304 50.395,38.133 50.389,38.01 C50.393,37.078 49.992,36.39 49.201,35.947 L49.201,35.947 Z" id="Fill-348" fill="#FFFFFF"></path>
            <path d="M83.424,43.799 C83.166,43.962 82.891,44.102 82.605,44.222 C82.219,44.377 81.854,44.459 81.516,44.459 C80.998,44.459 80.596,44.384 80.328,44.228 C80.059,44.079 79.916,43.82 79.922,43.45 C79.922,43.023 80.02,42.69 80.225,42.43 C80.43,42.18 80.736,41.978 81.115,41.828 C81.492,41.699 81.955,41.595 82.49,41.52 C82.967,41.46 83.908,41.351 84.029,41.35 C84.148,41.35 84.229,41.283 84.176,41.603 C84.15,41.742 83.879,42.859 83.756,43.365 C83.719,43.518 83.518,43.74 83.424,43.799 L83.424,43.799 Z M87.117,35.957 C86.326,35.515 85.086,35.291 83.389,35.291 C82.549,35.291 81.707,35.358 80.861,35.49 C80.238,35.584 80.174,35.6 79.791,35.683 C78.994,35.857 78.873,36.652 78.873,36.652 L78.617,37.701 C78.475,38.371 78.855,38.343 79.025,38.292 C79.373,38.187 79.561,38.082 80.268,37.922 C80.943,37.77 81.658,37.654 82.227,37.659 C83.063,37.659 83.697,37.751 84.121,37.927 C84.545,38.112 84.752,38.425 84.752,38.874 C84.754,38.981 84.756,39.081 84.719,39.17 C84.684,39.252 84.617,39.332 84.418,39.359 C83.225,39.429 82.367,39.538 81.336,39.689 C80.32,39.832 79.43,40.077 78.686,40.417 C77.893,40.768 77.301,41.239 76.891,41.836 C76.492,42.435 76.293,43.161 76.291,44.016 C76.291,44.824 76.582,45.484 77.145,45.995 C77.713,46.5 78.451,46.75 79.346,46.75 C79.904,46.746 80.342,46.705 80.656,46.627 C80.965,46.549 81.305,46.438 81.662,46.283 C81.928,46.171 82.217,46.01 82.521,45.807 C82.826,45.604 83.037,45.459 83.309,45.281 L83.318,45.298 L83.242,45.635 C83.242,45.638 83.238,45.64 83.238,45.642 L83.24,45.649 C83.152,46.054 83.396,46.39 83.797,46.432 L83.803,46.438 L83.836,46.438 L83.838,46.44 C84.105,46.44 85.018,46.44 85.445,46.438 L85.744,46.438 C85.764,46.438 85.766,46.432 85.771,46.426 C86.184,46.377 86.574,46.043 86.668,45.642 L88.191,39.062 C88.229,38.907 88.256,38.729 88.271,38.522 C88.291,38.314 88.313,38.144 88.307,38.019 C88.311,37.089 87.91,36.4 87.117,35.957 L87.117,35.957 Z" id="Fill-349" fill="#FFFFFF"></path>
            <path d="M77.047,34.167 C76.785,33.662 76.393,33.254 75.896,32.937 C75.387,32.619 74.781,32.399 74.08,32.27 C73.389,32.148 72.564,32.078 71.625,32.077 L67.258,32.078 C66.807,32.086 66.365,32.44 66.262,32.875 L63.326,45.655 C63.217,46.09 63.508,46.453 63.949,46.45 L66.047,46.447 C66.49,46.45 66.943,46.09 67.049,45.655 L67.758,42.555 C67.857,42.12 68.311,41.756 68.762,41.762 L69.357,41.762 C71.912,41.762 73.896,41.237 75.314,40.191 C76.732,39.139 77.443,37.762 77.443,36.048 C77.439,35.299 77.313,34.669 77.047,34.167 M72.539,38.348 C71.912,38.803 71.035,39.032 69.906,39.032 L69.387,39.032 C68.938,39.036 68.646,38.673 68.754,38.238 L69.379,35.525 C69.473,35.095 69.93,34.73 70.373,34.735 L71.059,34.73 C71.861,34.735 72.461,34.869 72.873,35.134 C73.279,35.405 73.479,35.823 73.48,36.38 C73.482,37.229 73.168,37.883 72.539,38.348" id="Fill-350" fill="#FFFFFF"></path>
            <path d="M94.318,32.182 L92.449,32.182 L92.447,32.182 L92.445,32.182 C92.026,32.182 91.607,32.5 91.477,32.907 C91.469,32.931 91.451,32.952 91.445,32.977 C91.445,32.977 91.407,33.15 91.343,33.446 L88.764,45.138 C88.701,45.415 88.659,45.596 88.646,45.642 L88.652,45.65 C88.566,46.052 88.809,46.378 89.203,46.421 L89.215,46.438 L91.152,46.438 C91.575,46.438 91.997,46.114 92.125,45.707 C92.133,45.685 92.148,45.665 92.154,45.642 L94.953,32.976 L94.947,32.974 C95.043,32.542 94.765,32.182 94.318,32.182" id="Fill-351" fill="#FFFFFF"></path>
            <path d="M97.154,34.76 C97.09,34.778 97.02,34.792 96.943,34.801 C96.867,34.814 96.799,34.819 96.74,34.819 C96.533,34.819 96.375,34.763 96.268,34.652 C96.16,34.54 96.105,34.361 96.105,34.115 L96.105,33.035 L95.875,33.035 L95.875,32.747 L96.105,32.747 L96.105,32.164 L96.447,32.164 L96.447,32.747 L97.154,32.747 L97.154,33.035 L96.447,33.035 L96.447,33.961 C96.447,34.067 96.451,34.15 96.455,34.21 C96.461,34.271 96.477,34.326 96.506,34.379 C96.531,34.428 96.568,34.463 96.615,34.486 C96.664,34.508 96.734,34.519 96.83,34.519 C96.887,34.519 96.943,34.51 97.006,34.494 C97.064,34.479 97.107,34.464 97.135,34.453 L97.154,34.453 L97.154,34.76" id="Fill-352" fill="#FFFFFF"></path>
            <path d="M100.533,34.78 L100.191,34.78 L100.191,33.622 C100.191,33.536 100.188,33.451 100.18,33.369 C100.17,33.288 100.154,33.223 100.129,33.174 C100.1,33.122 100.061,33.083 100.008,33.057 C99.955,33.03 99.883,33.016 99.783,33.016 C99.688,33.016 99.592,33.04 99.494,33.089 C99.398,33.135 99.305,33.197 99.207,33.271 C99.211,33.299 99.215,33.331 99.217,33.368 C99.219,33.405 99.221,33.441 99.221,33.477 L99.221,34.78 L98.879,34.78 L98.879,33.622 C98.879,33.533 98.875,33.447 98.867,33.367 C98.859,33.285 98.842,33.221 98.818,33.174 C98.787,33.121 98.75,33.082 98.697,33.055 C98.645,33.03 98.57,33.016 98.471,33.016 C98.377,33.016 98.285,33.039 98.189,33.086 C98.096,33.131 98.002,33.19 97.908,33.261 L97.908,34.78 L97.566,34.78 L97.566,32.747 L97.908,32.747 L97.908,32.971 C98.016,32.884 98.123,32.814 98.229,32.765 C98.334,32.716 98.447,32.69 98.566,32.69 C98.705,32.69 98.822,32.719 98.92,32.778 C99.016,32.836 99.088,32.916 99.135,33.021 C99.273,32.904 99.398,32.819 99.514,32.768 C99.627,32.717 99.75,32.69 99.879,32.69 C100.102,32.69 100.268,32.759 100.373,32.893 C100.48,33.029 100.533,33.219 100.533,33.46 L100.533,34.78" id="Fill-353" fill="#FFFFFF"></path>
        </g>
    </g>
</svg>