<?xml version="1.0" encoding="UTF-8" standalone="no"?>
<svg width="126px" height="79px" viewBox="0 0 126 79" version="1.1" xmlns="http://www.w3.org/2000/svg" xmlns:xlink="http://www.w3.org/1999/xlink">
    <!-- Generator: Sketch 40.3 (33839) - http://www.bohemiancoding.com/sketch -->
    <title>visa</title>
    <desc>Created with Sketch.</desc>
    <defs></defs>
    <g id="Page-1" stroke="none" stroke-width="1" fill="none" fill-rule="evenodd">
        <g id="visa">
            <path d="M125.43,74.213 C125.43,76.522 123.557,78.393 121.248,78.393 L4.18,78.393 C1.871,78.393 0,76.522 0,74.213 L0,4.182 C0,1.872 1.871,0 4.18,0 L121.248,0 C123.557,0 125.43,1.872 125.43,4.182 L125.43,74.213" id="Fill-339" fill="#3957A7"></path>
            <polyline id="Fill-340" fill="#FFFFFF" points="58.127 50.534 52 50.534 55.83 27 61.957 27 58.127 50.534"></polyline>
            <path d="M46.269,27 L40.428,43.187 L39.736,39.701 L39.736,39.702 L37.676,29.119 C37.676,29.119 37.426,27 34.769,27 L25.111,27 L25,27.399 C25,27.399 27.953,28.012 31.408,30.088 L36.73,50.534 L43.115,50.534 L52.865,27 L46.269,27" id="Fill-341" fill="#FFFFFF"></path>
            <path d="M87.43,42.21 L90.648,33.401 L92.461,42.21 L87.43,42.21 L87.43,42.21 Z M94.172,50.534 L99.797,50.534 L94.892,27 L89.967,27 C87.691,27 87.137,28.753 87.137,28.753 L78,50.534 L84.387,50.534 L85.662,47.039 L93.453,47.039 L94.172,50.534 L94.172,50.534 Z" id="Fill-342" fill="#FFFFFF"></path>
            <path d="M78.445,33.08 L79.318,28.026 C79.318,28.026 76.621,27 73.809,27 C70.768,27 63.547,28.329 63.547,34.791 C63.547,40.872 72.024,40.947 72.024,44.139 C72.024,47.332 64.42,46.762 61.912,44.748 L61,50.03 C61,50.03 63.736,51.361 67.916,51.361 C72.098,51.361 78.406,49.195 78.406,43.304 C78.406,37.185 69.856,36.614 69.856,33.954 C69.856,31.293 75.824,31.635 78.445,33.08" id="Fill-343" fill="#FFFFFF"></path>
            <path d="M39.736,39.702 L37.676,29.119 C37.676,29.119 37.426,27 34.769,27 L25.111,27 L25,27.399 C25,27.399 29.641,28.36 34.092,31.963 C38.348,35.409 39.736,39.702 39.736,39.702" id="Fill-344" fill="#F9A533"></path>
        </g>
    </g>
</svg>