<?xml version="1.0" encoding="UTF-8" standalone="no"?>
<svg width="126px" height="79px" viewBox="0 0 126 79" version="1.1" xmlns="http://www.w3.org/2000/svg" xmlns:xlink="http://www.w3.org/1999/xlink">
    <!-- Generator: Sketch 40.3 (33839) - http://www.bohemiancoding.com/sketch -->
    <title>amazon</title>
    <desc>Created with Sketch.</desc>
    <defs></defs>
    <g id="Page-1" stroke="none" stroke-width="1" fill="none" fill-rule="evenodd">
        <g id="amazon">
            <path d="M125.43,74.212 C125.43,76.522 123.56,78.394 121.25,78.394 L4.18,78.394 C1.87,78.394 0,76.522 0,74.212 L0,4.18 C0,1.87 1.87,0 4.18,0 L121.25,0 C123.56,0 125.43,1.87 125.43,4.18 L125.43,74.212" id="Fill-388" fill="#FF9900"></path>
            <path d="M72.0481386,47.2602609 C67.6881386,50.4832609 61.3581386,52.1972609 55.9081386,52.1972609 C48.2681386,52.1972609 41.3881386,49.3742609 36.1781386,44.6712609 C35.7681386,44.3022609 36.1281386,43.7982609 36.6281386,44.0842609 C42.2381386,47.3522609 49.1881386,49.3222609 56.3581386,49.3222609 C61.2081386,49.3222609 66.5281386,48.3172609 71.4181386,46.2402609 C72.1581386,45.9272609 72.7781386,46.7272609 72.0481386,47.2602609" id="Fill-389" fill="#231F1F"></path>
            <path d="M73.4570792,44.9715714 C72.8970792,44.2565714 69.7670792,44.6335714 68.3570792,44.8015714 C67.9370792,44.8515714 67.8670792,44.4805714 68.2570792,44.2095714 C70.7470792,42.4545714 74.8470792,42.9615714 75.3270792,43.5495714 C75.8070792,44.1415714 75.1970792,48.2485714 72.8570792,50.2085714 C72.4970792,50.5105714 72.1470792,50.3495714 72.3070792,49.9495714 C72.8370792,48.6345714 74.0170792,45.6875714 73.4570792,44.9715714" id="Fill-390" fill="#231F1F"></path>
            <path d="M68.43,31.138 L68.43,29.433 C68.43,29.174 68.63,29.001 68.86,29.001 L76.51,29 C76.76,29 76.95,29.178 76.95,29.431 L76.95,30.893 C76.95,31.139 76.74,31.461 76.37,31.967 L72.42,37.623 C73.88,37.589 75.44,37.809 76.78,38.56 C77.08,38.728 77.16,38.979 77.18,39.225 L77.18,41.046 C77.18,41.296 76.91,41.586 76.62,41.435 C74.27,40.203 71.14,40.068 68.54,41.45 C68.28,41.592 68,41.306 68,41.055 L68,39.323 C68,39.049 68,38.574 68.28,38.152 L72.87,31.569 L68.87,31.568 C68.63,31.568 68.43,31.394 68.43,31.138" id="Fill-391" fill="#231F1F"></path>
            <path d="M40.74,42.014 L38.41,42.014 C38.2,42 38.02,41.833 38,41.621 L38,29.682 C38,29.442 38.2,29.252 38.45,29.252 L40.62,29.252 C40.84,29.264 41.03,29.436 41.04,29.653 L41.04,31.211 L41.08,31.211 C41.65,29.704 42.71,29 44.14,29 C45.6,29 46.51,29.704 47.16,31.211 C47.73,29.704 49.01,29 50.38,29 C51.35,29 52.42,29.403 53.07,30.306 C53.81,31.312 53.65,32.769 53.65,34.05 L53.65,41.584 C53.65,41.822 53.45,42.014 53.2,42.014 L50.88,42.014 C50.65,41.999 50.47,41.814 50.47,41.585 L50.46,35.256 C50.46,34.753 50.51,33.499 50.4,33.021 C50.22,32.216 49.7,31.99 49.03,31.99 C48.47,31.99 47.88,32.367 47.64,32.97 C47.4,33.573 47.42,34.577 47.42,35.256 L47.42,41.584 C47.42,41.822 47.22,42.014 46.98,42.014 L44.65,42.014 C44.42,41.999 44.23,41.814 44.23,41.585 L44.23,35.256 C44.23,33.925 44.45,31.966 42.8,31.966 C41.13,31.966 41.19,33.875 41.19,35.256 L41.19,41.584 C41.19,41.822 40.99,42.014 40.74,42.014" id="Fill-392" fill="#231F1F"></path>
            <path d="M84.26,31.438 C82.54,31.438 82.43,33.774 82.43,35.232 C82.43,36.688 82.41,39.804 84.23,39.804 C86.04,39.804 86.12,37.291 86.12,35.759 C86.12,34.753 86.08,33.547 85.77,32.592 C85.51,31.764 84.99,31.438 84.26,31.438 L84.26,31.438 Z M84.23,29 C87.69,29 89.55,31.966 89.55,35.734 C89.55,39.376 87.49,42.266 84.23,42.266 C80.85,42.266 79,39.3 79,35.608 C79,31.889 80.87,29 84.23,29 L84.23,29 Z" id="Fill-393" fill="#231F1F"></path>
            <path d="M93.74,42.014 L91.42,42.014 C91.19,41.999 91.01,41.814 91.01,41.585 L91,29.642 C91.02,29.423 91.22,29.252 91.45,29.252 L93.61,29.252 C93.81,29.263 93.98,29.401 94.02,29.586 L94.02,31.412 L94.06,31.412 C94.72,29.78 95.63,29 97.23,29 C98.27,29 99.3,29.377 99.95,30.408 C100.56,31.361 100.56,32.97 100.56,34.126 L100.56,41.638 C100.53,41.85 100.34,42.014 100.11,42.014 L97.78,42.014 C97.56,42 97.39,41.842 97.36,41.638 L97.36,35.157 C97.36,33.849 97.52,31.94 95.91,31.94 C95.35,31.94 94.82,32.316 94.56,32.895 C94.24,33.624 94.19,34.352 94.19,35.157 L94.19,41.584 C94.19,41.822 93.99,42.014 93.74,42.014" id="Fill-394" fill="#231F1F"></path>
            <path d="M65.2,42.098 C65.05,42.236 64.83,42.245 64.65,42.152 C63.88,41.511 63.74,41.213 63.32,40.602 C62.04,41.904 61.14,42.292 59.48,42.292 C57.53,42.292 56,41.085 56,38.667 C56,36.78 57.03,35.495 58.48,34.864 C59.75,34.312 61.51,34.211 62.86,34.06 L62.86,33.758 C62.86,33.204 62.9,32.55 62.57,32.071 C62.29,31.643 61.75,31.467 61.27,31.467 C60.38,31.467 59.59,31.922 59.4,32.864 C59.36,33.072 59.21,33.28 58.99,33.291 L56.74,33.048 C56.55,33.004 56.34,32.852 56.39,32.56 C56.91,29.825 59.38,29 61.59,29 C62.73,29 64.21,29.302 65.1,30.158 C66.23,31.215 66.12,32.625 66.12,34.161 L66.12,37.784 C66.12,38.876 66.57,39.353 67,39.94 C67.15,40.152 67.18,40.405 66.99,40.558 C66.52,40.957 65.67,41.691 65.21,42.104 L65.2,42.098 L65.2,42.098 Z M62.86,36.426 C62.86,37.334 62.88,38.089 62.42,38.895 C62.05,39.549 61.46,39.952 60.81,39.952 C59.92,39.952 59.4,39.272 59.4,38.266 C59.4,36.283 61.17,35.923 62.86,35.923 L62.86,36.426 L62.86,36.426 Z" id="Fill-395" fill="#231F1F"></path>
            <path d="M34.2,42.098 C34.04,42.236 33.82,42.245 33.65,42.152 C32.88,41.511 32.74,41.213 32.32,40.602 C31.04,41.904 30.13,42.292 28.48,42.292 C26.52,42.292 25,41.085 25,38.667 C25,36.78 26.02,35.495 27.48,34.864 C28.74,34.312 30.51,34.211 31.85,34.06 L31.85,33.758 C31.85,33.204 31.9,32.55 31.57,32.071 C31.29,31.643 30.74,31.467 30.27,31.467 C29.38,31.467 28.59,31.922 28.4,32.864 C28.36,33.072 28.2,33.28 27.99,33.291 L25.74,33.048 C25.55,33.004 25.33,32.852 25.39,32.56 C25.91,29.825 28.38,29 30.59,29 C31.72,29 33.2,29.302 34.1,30.158 C35.23,31.215 35.12,32.625 35.12,34.161 L35.12,37.784 C35.12,38.876 35.57,39.353 36,39.94 C36.14,40.152 36.18,40.405 35.99,40.558 C35.51,40.957 34.67,41.691 34.2,42.104 L34.2,42.098 L34.2,42.098 Z M31.85,36.426 C31.85,37.334 31.87,38.089 31.42,38.895 C31.05,39.549 30.46,39.952 29.81,39.952 C28.92,39.952 28.39,39.272 28.39,38.266 C28.39,36.283 30.17,35.923 31.85,35.923 L31.85,36.426 L31.85,36.426 Z" id="Fill-396" fill="#231F1F"></path>
        </g>
    </g>
</svg>